<svg viewBox="0 0 500 500" xmlns="http://www.w3.org/2000/svg" fill-rule="evenodd" clip-rule="evenodd" stroke-linejoin="round" stroke-miterlimit="2"><g fill="#263cd9"><path d="M278.556 273.726a8.107 8.107 0 0114.003-.292l43.494 71.153-50.094 85.23h-94.086l86.683-156.091zM328.313 186.705a8.107 8.107 0 0114.062-.18l43.402 73.463-18.009 30.64a8.108 8.108 0 01-13.905.121l-43.684-71.467 18.134-32.577zM199.638 122.373l-.001-.002 26.095-44.657a15.198 15.198 0 0125.618-.987l26.929 38.879-40.06 68.159L93.601 429.817H20l179.638-307.444zM432.501 362.548a8.108 8.108 0 0113.968 0l32.403 54.988a8.147 8.147 0 01-7.018 12.281h-78.993l39.64-67.269z"/></g></svg>