<?xml version="1.0" encoding="UTF-8" standalone="no"?><!DOCTYPE svg PUBLIC "-//W3C//DTD SVG 1.1//EN" "http://www.w3.org/Graphics/SVG/1.1/DTD/svg11.dtd"><svg width="100%" height="100%" viewBox="0 0 500 500" version="1.1" xmlns="http://www.w3.org/2000/svg" xmlns:xlink="http://www.w3.org/1999/xlink" xml:space="preserve" xmlns:serif="http://www.serif.com/" style="fill-rule:evenodd;clip-rule:evenodd;stroke-linejoin:round;stroke-miterlimit:2;"><g><path d="M278.556,273.726c1.4,-2.521 4.035,-4.109 6.918,-4.169c2.883,-0.06 5.581,1.416 7.085,3.877c14.025,22.943 43.494,71.153 43.494,71.153l-50.094,85.23l-94.086,0c0,0 65.227,-117.455 86.683,-156.091Z"/><path d="M328.313,186.705c1.413,-2.537 4.075,-4.125 6.979,-4.162c2.904,-0.038 5.606,1.481 7.083,3.982c13.965,23.637 43.402,73.463 43.402,73.463c0,0 -10.65,18.12 -18.009,30.64c-1.444,2.456 -4.07,3.974 -6.919,3.999c-2.848,0.024 -5.501,-1.448 -6.986,-3.878c-13.941,-22.807 -43.684,-71.467 -43.684,-71.467c0,0 10.731,-19.278 18.134,-32.577Z"/><path d="M199.638,122.373l-0.001,-0.002c0,0 14.921,-25.535 26.095,-44.657c2.62,-4.485 7.349,-7.32 12.539,-7.52c5.189,-0.2 10.122,2.264 13.079,6.533c11.772,16.996 26.929,38.879 26.929,38.879l-40.06,68.159l0,0l-144.618,246.052l-73.601,0l179.638,-307.444Z"/><path d="M432.501,362.548c1.458,-2.473 4.114,-3.991 6.984,-3.991c2.871,0 5.527,1.518 6.984,3.991c8.721,14.799 23.566,39.991 32.403,54.988c1.484,2.519 1.505,5.639 0.055,8.177c-1.451,2.538 -4.15,4.104 -7.073,4.104c-26.118,0 -78.993,0 -78.993,0c0,0 26.632,-45.195 39.64,-67.269Z"/></g></svg>