<?xml version="1.0" encoding="UTF-8" standalone="no"?><!DOCTYPE svg PUBLIC "-//W3C//DTD SVG 1.1//EN" "http://www.w3.org/Graphics/SVG/1.1/DTD/svg11.dtd"><svg width="100%" height="100%" viewBox="0 0 500 500" version="1.1" xmlns="http://www.w3.org/2000/svg" xmlns:xlink="http://www.w3.org/1999/xlink" xml:space="preserve" xmlns:serif="http://www.serif.com/" style="fill-rule:evenodd;clip-rule:evenodd;stroke-linejoin:round;stroke-miterlimit:2;"><g id="Centered-in-Square--Default-" serif:id="Centered in Square (Default)"><path d="M212.605,115.938l10.086,16.502l-180.731,308.203l-21.96,0l192.605,-324.705Z"/><path d="M230.177,86.313l15.99,-26.956l9.966,16.054l-15.971,27.236l-9.985,-16.334Z"/><path d="M338.733,322.278l35.7,58.404l-35.242,59.961l-66.191,0l65.733,-118.365Z"/><path d="M340.149,266.22l19.367,-29.514l49.898,84.459l-17.49,29.758l-51.775,-84.703Z"/><path d="M238.57,158.417l34.844,57.002l-132.377,225.224l-67.37,0l164.903,-282.226Z"/><path d="M256.009,128.572l16.991,-29.08l37.083,53.538l-19.179,32.63l-34.895,-57.088Z"/><path d="M311.755,278.143l12.168,19.908l-83.809,142.592l-23.869,0l95.51,-162.5Z"/><path d="M329.246,248.384l18.537,-31.539l11.966,20.253l-18.335,31.194l-12.168,-19.908Z"/><path d="M447.199,384.98l32.801,55.663l-65.601,0l32.8,-55.663Z"/></g></svg>