<svg viewBox="0 0 361 80" xmlns="http://www.w3.org/2000/svg" fill-rule="evenodd" clip-rule="evenodd" stroke-linecap="round" stroke-linejoin="round" stroke-miterlimit="1.5"><path fill="none" d="M0 0h360.006v79.955H0z"/><g fill="#263cd9"><g stroke="#263cd9" stroke-width="3"><path d="M49.39 43.768a1.518 1.518 0 012.619-.055l6.322 10.343-7.58 12.897H36.514L49.39 43.768zM56.914 30.608a1.515 1.515 0 012.63-.034l6.311 10.681-2.481 4.22a1.513 1.513 0 01-2.6.023l-6.358-10.402 2.498-4.488zM37.689 20.432h0l3.519-6.022a2.842 2.842 0 014.791-.184l3.59 5.183-6.062 10.313h0L21.645 66.953H10.508l27.181-46.521zM72.675 57.197a1.518 1.518 0 012.612 0l4.396 7.459a1.525 1.525 0 01-1.313 2.297H66.927l5.748-9.756z"/></g><g fill-rule="nonzero"><path d="M120.215 30.428c-1.671-3.166-5.102-4.309-9.283-4.309-5.721 0-8.976 2.726-10.163 6.642l5.409 1.717c.749-2.158 2.993-2.906 4.754-2.906 2.817 0 4.115 1.013 4.357 3.236-4.467.661-7.878 1.166-10.166 2.002-3.827 1.407-5.19 3.871-5.19 7.173 0 3.958 2.815 7.213 7.918 7.213 3.653 0 5.986-1.056 8.098-3.563v2.903h5.233V36.018c0-2.156-.044-3.83-.967-5.59zm-5.586 12.892c-.484 1.012-2.201 3.168-5.502 3.168-2.068 0-3.345-.968-3.345-2.596 0-1.188.705-2.024 2.465-2.728 1.364-.506 2.993-.836 6.998-1.518-.022 1.144-.11 2.64-.616 3.674zM132.03 40.328h16.674c.726-8.624-3.629-14.209-11.108-14.209-7.04 0-12.011 5.057-12.011 12.846 0 7.129 5.059 12.231 12.363 12.231 4.575 0 8.754-2.507 10.558-6.862l-5.983-1.717c-.88 1.937-2.596 2.994-4.927 2.994-3.234 0-5.126-1.893-5.566-5.283zm5.83-9.02c2.881 0 4.377 1.365 4.795 4.579h-10.471c.616-3.016 2.464-4.579 5.676-4.579zM169.717 26.779v1.319c-1.606-1.254-3.653-1.979-6.117-1.979-6.821 0-11.263 5.277-11.263 12.538 0 7.13 4.398 12.539 10.954 12.539 2.246 0 4.138-.55 5.678-1.517v2.397c.088 2.642-2.42 4.007-5.104 4.007-1.672 0-3.212-.749-3.96-2.158l-5.544 2.685c1.804 3.079 5.412 5.146 9.46 5.146 5.236 0 9.634-2.024 10.778-6.38.263-1.012.351-2.024.351-3.212V26.779h-5.233zm-5.457 19.096c-3.873 0-5.59-3.212-5.59-7.216 0-3.962 1.805-7.219 5.81-7.219 3.741 0 5.237 2.905 5.237 7.217 0 4.314-1.452 7.218-5.457 7.218zM181.553 23.476h5.981v-5.277h-5.981v5.277zm0 27.06h5.981V26.779h-5.981v23.757zM203.42 51.196c6.204 0 9.942-2.947 9.942-7.83 0-3.696-2.067-5.633-7.477-7.041-5.546-1.408-6.339-1.804-6.339-3.037 0-1.364 1.453-2.156 3.654-2.024 2.244.176 3.609 1.232 3.829 2.993l6.113-1.101c-.615-4.311-4.486-7.037-10.074-7.037-5.765 0-9.459 2.902-9.459 7.477 0 3.653 2.111 5.501 7.918 6.998 5.15 1.364 5.722 1.672 5.722 3.08 0 1.497-1.232 2.377-3.389 2.377-2.641 0-4.446-1.321-4.929-3.565l-6.114.924c.792 4.971 4.619 7.786 10.603 7.786zM217.765 34.347h13.197v4.617h-13.197zM237.125 23.476h5.981v-5.277h-5.981v5.277zm0 27.06h5.981V26.779h-5.981v23.757zM260.178 51.196c5.5 0 9.416-2.815 10.78-7.874l-6.116-1.276c-.704 2.288-1.98 3.565-4.664 3.565-3.608 0-5.456-2.817-5.456-6.954 0-3.96 1.672-6.953 5.456-6.953 2.2 0 4.092 1.452 4.796 3.917l5.984-1.585c-1.056-4.883-5.104-7.917-10.692-7.917-7.259 0-11.877 5.321-11.877 12.538 0 7.13 4.398 12.539 11.789 12.539zM285.392 51.196c7.128 0 12.054-5.146 12.054-12.539 0-7.349-4.882-12.538-12.054-12.538-7.041 0-12.011 5.101-12.011 12.538 0 7.349 4.838 12.539 12.011 12.539zm0-5.585c-3.741 0-5.678-2.685-5.678-6.954 0-4.137 1.761-6.953 5.678-6.953 3.785 0 5.721 2.728 5.721 6.953 0 4.093-1.892 6.954-5.721 6.954zM315.268 26.075c-3.411 0-5.985 1.231-7.702 3.144v-2.44h-5.321v23.757h6.069V38.481c0-5.897 2.993-6.777 5.062-6.777 5.105 0 5.105 5.456 5.105 7.612v11.22h6.069V37.204c0-1.98 0-11.129-9.282-11.129zM339.556 51.196c6.204 0 9.942-2.947 9.942-7.83 0-3.696-2.067-5.633-7.477-7.041-5.546-1.408-6.339-1.804-6.339-3.037 0-1.364 1.453-2.156 3.654-2.024 2.244.176 3.609 1.232 3.829 2.993l6.113-1.101c-.615-4.311-4.486-7.037-10.074-7.037-5.765 0-9.459 2.902-9.459 7.477 0 3.653 2.111 5.501 7.918 6.998 5.15 1.364 5.722 1.672 5.722 3.08 0 1.497-1.232 2.377-3.389 2.377-2.641 0-4.446-1.321-4.929-3.565l-6.114.924c.792 4.971 4.619 7.786 10.603 7.786z"/></g></g></svg>